<svg width="32" height="32" viewBox="0 0 32 32" fill="none" xmlns="http://www.w3.org/2000/svg">
<path d="M24.5467 29.3333H25.04C25.4533 29.32 25.84 29.1067 26.08 28.76L29.1067 24.4C29.3067 24.1067 29.3867 23.7467 29.32 23.3867C29.2873 23.2112 29.2197 23.0441 29.1212 22.8952C29.0228 22.7463 28.8954 22.6187 28.7467 22.52L22.2 18.16C21.6533 17.8 20.92 17.88 20.48 18.36L17.9733 21.0667C16.96 20.4667 15.2667 19.3867 13.9333 18.0533C12.6 16.72 11.52 15.0267 10.92 14.0267L13.6267 11.52C14.1067 11.08 14.2 10.3467 13.8267 9.80001L9.46666 3.25334C9.26666 2.96001 8.96 2.74667 8.61333 2.68001C8.25333 2.61334 7.89333 2.68001 7.6 2.89334L3.24 5.90667C2.89333 6.14667 2.68 6.53334 2.66666 6.94667C2.62666 7.89334 2.45333 16.3333 9.05333 22.92C15 28.8667 22.44 29.32 24.5467 29.32V29.3333Z" fill="black"/>
</svg>
